<svg xmlns="http://www.w3.org/2000/svg" xmlns:xlink="http://www.w3.org/1999/xlink" width="250" zoomAndPan="magnify" viewBox="0 0 187.5 112.499997" height="150" preserveAspectRatio="xMidYMid meet" version="1.0"><path fill="#030104" d="M 66.078125 88.605469 C 64.25 88.605469 63.035156 89.820312 63.035156 91.644531 L 63.035156 94.1875 C 63.035156 96.011719 64.261719 97.226562 66.078125 97.226562 C 66.933594 97.226562 67.726562 97.050781 68.4375 96.691406 C 68.648438 96.582031 68.769531 96.394531 68.769531 96.160156 C 68.769531 95.835938 68.511719 95.589844 68.175781 95.589844 C 68.089844 95.589844 68.027344 95.601562 67.925781 95.636719 C 67.230469 95.949219 66.636719 96.097656 66.078125 96.097656 C 64.933594 96.097656 64.226562 95.363281 64.226562 94.175781 L 64.226562 93.292969 L 68.285156 93.292969 C 68.734375 93.292969 69.105469 92.933594 69.105469 92.476562 L 69.105469 91.617188 C 69.09375 89.820312 67.875 88.605469 66.078125 88.605469 Z M 64.226562 91.558594 C 64.226562 90.402344 64.921875 89.722656 66.078125 89.722656 C 67.21875 89.722656 67.902344 90.414062 67.902344 91.558594 L 67.902344 92.1875 L 64.226562 92.1875 Z M 64.226562 91.558594 " fill-opacity="1" fill-rule="nonzero"/><path fill="#030104" d="M 74.332031 92.972656 C 73.414062 92.574219 72.941406 91.855469 72.941406 90.925781 C 72.941406 89.523438 74.273438 88.667969 75.613281 88.667969 C 76.257812 88.667969 76.953125 88.777344 77.5625 89.050781 C 77.8125 89.164062 78.023438 89.324219 78.023438 89.644531 C 78.023438 89.957031 77.761719 90.21875 77.425781 90.21875 C 77.351562 90.21875 77.289062 90.203125 77.203125 90.167969 C 76.917969 90.054688 76.507812 89.808594 75.550781 89.808594 C 74.96875 89.808594 74.210938 90.042969 74.210938 90.851562 C 74.210938 91.40625 74.484375 91.65625 74.953125 91.867188 L 76.296875 92.460938 C 77.191406 92.847656 78.046875 93.40625 78.046875 94.671875 C 78.046875 96.097656 77.015625 97.175781 75.425781 97.175781 C 74.730469 97.175781 73.925781 96.988281 73.316406 96.730469 C 73.09375 96.628906 72.957031 96.433594 72.957031 96.171875 C 72.957031 95.835938 73.167969 95.5625 73.527344 95.5625 C 73.675781 95.5625 73.800781 95.601562 73.898438 95.648438 C 74.382812 95.859375 74.878906 96.023438 75.4375 96.023438 C 76.296875 96.023438 76.792969 95.613281 76.792969 94.832031 C 76.792969 94.234375 76.296875 93.828125 75.761719 93.589844 Z M 74.332031 92.972656 " fill-opacity="1" fill-rule="nonzero"/><path fill="#030104" d="M 85.507812 92.597656 C 86.105469 92.597656 86.765625 92.351562 86.765625 91.320312 C 86.765625 90.488281 86.328125 89.992188 85.507812 89.992188 L 84.019531 89.992188 L 84.019531 92.597656 Z M 82.765625 89.546875 C 82.765625 89.136719 83.113281 88.789062 83.535156 88.789062 L 85.507812 88.789062 C 86.988281 88.789062 88.019531 89.808594 88.019531 91.320312 C 88.019531 92.808594 87.023438 93.789062 85.507812 93.789062 L 84.019531 93.789062 L 84.019531 96.566406 C 84.019531 96.914062 83.722656 97.1875 83.398438 97.1875 C 83.050781 97.1875 82.777344 96.902344 82.777344 96.566406 L 82.777344 89.546875 Z M 82.765625 89.546875 " fill-opacity="1" fill-rule="nonzero"/><path fill="#030104" d="M 92.75 89.300781 C 92.75 88.953125 93.035156 88.679688 93.371094 88.679688 C 93.707031 88.679688 93.992188 88.964844 93.992188 89.300781 L 93.992188 96.554688 C 93.992188 96.902344 93.691406 97.175781 93.371094 97.175781 C 93.023438 97.175781 92.75 96.890625 92.75 96.554688 Z M 92.75 89.300781 " fill-opacity="1" fill-rule="nonzero"/><path fill="#030104" d="M 102.113281 92.398438 C 102.660156 92.398438 103.277344 92.175781 103.277344 91.222656 C 103.277344 90.515625 102.871094 89.980469 102.113281 89.980469 L 100.398438 89.980469 L 100.398438 92.398438 Z M 101.464844 93.601562 L 100.398438 93.601562 L 100.398438 96.582031 C 100.398438 96.929688 100.101562 97.1875 99.777344 97.1875 C 99.429688 97.1875 99.15625 96.914062 99.15625 96.582031 L 99.15625 89.558594 C 99.15625 89.148438 99.503906 88.804688 99.925781 88.804688 L 102.113281 88.804688 C 102.808594 88.804688 103.414062 89.027344 103.851562 89.460938 C 104.296875 89.90625 104.535156 90.527344 104.535156 91.234375 C 104.535156 91.941406 104.296875 92.535156 103.863281 92.972656 C 103.578125 93.242188 103.242188 93.417969 102.832031 93.527344 L 104.472656 96.28125 C 104.535156 96.382812 104.570312 96.492188 104.570312 96.605469 C 104.570312 96.914062 104.285156 97.214844 103.960938 97.214844 C 103.75 97.214844 103.550781 97.101562 103.441406 96.914062 Z M 101.464844 93.601562 " fill-opacity="1" fill-rule="nonzero"/><path fill="#030104" d="M 111.882812 90.9375 L 110.855469 93.789062 L 112.914062 93.789062 Z M 113.335938 94.992188 L 110.429688 94.992188 L 109.785156 96.792969 C 109.6875 97.039062 109.464844 97.1875 109.203125 97.1875 C 108.878906 97.1875 108.59375 96.914062 108.59375 96.582031 C 108.59375 96.507812 108.605469 96.457031 108.632812 96.382812 L 111.226562 89.136719 C 111.324219 88.890625 111.585938 88.691406 111.871094 88.691406 C 112.144531 88.691406 112.429688 88.878906 112.519531 89.148438 L 115.113281 96.382812 C 115.136719 96.445312 115.148438 96.519531 115.148438 96.582031 C 115.148438 96.902344 114.890625 97.1875 114.542969 97.1875 C 114.292969 97.1875 114.058594 97.039062 113.957031 96.792969 Z M 113.335938 94.992188 " fill-opacity="1" fill-rule="nonzero"/><path fill="#030104" d="M 120.453125 97.0625 C 120.03125 97.0625 119.683594 96.703125 119.683594 96.296875 L 119.683594 89.300781 C 119.683594 88.953125 119.980469 88.679688 120.316406 88.679688 C 120.664062 88.679688 120.9375 88.976562 120.9375 89.3125 L 120.9375 95.875 L 123.964844 95.875 C 124.3125 95.875 124.574219 96.132812 124.574219 96.46875 C 124.574219 96.816406 124.3125 97.0625 123.980469 97.0625 Z M 120.453125 97.0625 " fill-opacity="1" fill-rule="nonzero"/><path fill="#030104" d="M 129.605469 48.203125 C 129.640625 48.054688 129.640625 47.894531 129.605469 47.746094 L 122.921875 25.390625 C 122.835938 25.105469 122.613281 24.90625 122.328125 24.847656 L 94.054688 12.902344 C 93.804688 12.789062 93.507812 12.839844 93.28125 12.988281 C 93.269531 13 93.246094 13.011719 93.234375 13.023438 L 58.476562 31.929688 C 58.167969 32.089844 57.992188 32.4375 58.042969 32.785156 L 61.222656 53.859375 C 61.257812 54.109375 61.394531 54.320312 61.605469 54.457031 L 77.328125 61.015625 L 77.972656 72.304688 C 77.984375 72.441406 78.023438 72.578125 78.097656 72.691406 C 78.109375 72.714844 78.144531 72.738281 78.160156 72.765625 C 78.207031 72.824219 78.257812 72.902344 78.332031 72.949219 C 78.355469 72.960938 78.382812 72.960938 78.417969 72.976562 C 78.445312 72.988281 78.457031 73.023438 78.480469 73.023438 L 93.457031 79.101562 C 93.554688 79.140625 93.667969 79.164062 93.765625 79.164062 C 93.84375 79.164062 93.902344 79.152344 93.976562 79.140625 L 121.992188 70.582031 C 122.105469 70.554688 122.203125 70.492188 122.289062 70.417969 C 122.328125 70.394531 122.351562 70.371094 122.378906 70.34375 C 122.4375 70.285156 122.488281 70.207031 122.527344 70.121094 Z M 86.339844 45.945312 L 87.410156 54.679688 L 77.910156 55.558594 C 77.796875 55.570312 77.699219 55.597656 77.601562 55.644531 C 77.328125 55.796875 77.140625 56.09375 77.152344 56.425781 L 77.3125 59.15625 L 63.503906 53.613281 Z M 93.855469 43.367188 L 111.585938 48.75 L 113.847656 53.6875 L 100.210938 57.941406 L 99.515625 54.320312 C 99.441406 53.898438 99.058594 53.597656 98.621094 53.636719 L 89.0625 54.515625 L 87.96875 45.375 Z M 78.953125 60.335938 C 78.953125 60.335938 78.953125 60.324219 78.953125 60.335938 L 78.742188 57.171875 L 79.761719 57.046875 L 98.039062 55.359375 L 98.773438 59.207031 C 98.773438 59.207031 98.773438 59.207031 98.773438 59.21875 L 99.664062 64.128906 L 79.585938 71.113281 Z M 93.84375 77.464844 L 81.125 72.316406 L 100.859375 65.457031 C 101.242188 65.320312 101.464844 64.925781 101.402344 64.527344 L 100.511719 59.601562 L 114.453125 55.113281 L 120.949219 69.128906 Z M 62.675781 52.335938 L 59.753906 33.132812 L 93.804688 14.585938 L 121.457031 26.261719 L 127.953125 47.980469 L 121.894531 67.292969 L 113.261719 48.5 C 112.828125 47.484375 112.605469 47.324219 112.34375 47.273438 L 94.113281 41.703125 C 93.941406 41.640625 93.753906 41.640625 93.582031 41.703125 Z M 62.675781 52.335938 " fill-opacity="1" fill-rule="nonzero"/></svg>